<svg width="53" height="53" viewBox="0 0 53 53" fill="none" xmlns="http://www.w3.org/2000/svg">
<path d="M28.7083 19.875H40.8541L28.7083 7.72913V19.875ZM13.25 4.41663H30.9166L44.1666 17.6666V44.1666C44.1666 45.338 43.7013 46.4614 42.873 47.2897C42.0447 48.118 40.9214 48.5833 39.75 48.5833H13.25C10.7987 48.5833 8.83331 46.5958 8.83331 44.1666V8.83329C8.83331 6.38204 10.7987 4.41663 13.25 4.41663ZM13.515 34.2291L21.7741 42.4883L24.91 39.3745L19.7646 34.2291L24.91 29.0837L21.7741 25.97L13.515 34.2291ZM38.16 34.2291L29.9008 25.97L26.765 29.0837L31.9104 34.2291L26.765 39.3745L29.9008 42.4883L38.16 34.2291Z" fill="white"/>
</svg>
