<svg width="53" height="53" viewBox="0 0 53 53" fill="none" xmlns="http://www.w3.org/2000/svg">
<path d="M6.625 38.0937V46.375H14.9062L39.3304 21.9287L31.0492 13.6475L6.625 38.0937ZM49.9304 40.545L40.545 49.9304L29.0617 38.4471L32.9704 34.5383L35.1787 36.7467L40.6333 31.27L43.7692 34.4058L40.545 37.5417L42.8858 39.75L46.0217 36.6583L49.9304 40.545ZM14.5971 23.9162L3.06958 12.455L12.455 3.06958L16.3417 6.97833L10.8871 12.455L13.25 14.7958L18.6825 9.31916L21.8183 12.455L18.6825 15.5687L20.8908 17.7771L14.5971 23.9162ZM45.7346 15.4583C46.5958 14.5971 46.5958 13.25 45.7346 12.3446L40.5671 7.26541C39.75 6.40416 38.3146 6.40416 37.4533 7.26541L33.39 11.3067L41.6712 19.5879L45.7346 15.4583Z" fill="white"/>
</svg>
