<svg width="50" height="50" viewBox="0 0 50 50" fill="none" xmlns="http://www.w3.org/2000/svg">
<path d="M25 4.16675C22.2641 4.16675 19.5551 4.70562 17.0274 5.75259C14.4998 6.79956 12.2032 8.33414 10.2686 10.2687C6.36162 14.1757 4.16669 19.4747 4.16669 25.0001C4.16669 34.2084 10.1459 42.0209 18.4167 44.7917C19.4584 44.9584 19.7917 44.3126 19.7917 43.7501C19.7917 43.2709 19.7917 41.9584 19.7917 40.2292C14.0209 41.4792 12.7917 37.4376 12.7917 37.4376C11.8334 35.0209 10.4792 34.3751 10.4792 34.3751C8.58335 33.0834 10.625 33.1251 10.625 33.1251C12.7084 33.2709 13.8125 35.2709 13.8125 35.2709C15.625 38.4376 18.6875 37.5001 19.875 37.0001C20.0625 35.6459 20.6042 34.7292 21.1875 34.2084C16.5625 33.6876 11.7084 31.8959 11.7084 23.9584C11.7084 21.6459 12.5 19.7917 13.8542 18.3126C13.6459 17.7917 12.9167 15.6251 14.0625 12.8126C14.0625 12.8126 15.8125 12.2501 19.7917 14.9376C21.4375 14.4792 23.2292 14.2501 25 14.2501C26.7709 14.2501 28.5625 14.4792 30.2084 14.9376C34.1875 12.2501 35.9375 12.8126 35.9375 12.8126C37.0834 15.6251 36.3542 17.7917 36.1459 18.3126C37.5 19.7917 38.2917 21.6459 38.2917 23.9584C38.2917 31.9167 33.4167 33.6667 28.7709 34.1876C29.5209 34.8334 30.2084 36.1042 30.2084 38.0417C30.2084 40.8334 30.2084 43.0834 30.2084 43.7501C30.2084 44.3126 30.5417 44.9792 31.6042 44.7917C39.875 42.0001 45.8334 34.2084 45.8334 25.0001C45.8334 22.2642 45.2945 19.5551 44.2475 17.0275C43.2005 14.4999 41.666 12.2032 39.7314 10.2687C37.7969 8.33414 35.5002 6.79956 32.9726 5.75259C30.445 4.70562 27.7359 4.16675 25 4.16675Z" fill="white"/>
</svg>
