<svg width="34" height="34" viewBox="0 0 34 34" fill="none" xmlns="http://www.w3.org/2000/svg">
<path d="M17.091 3.05246C9.58349 3.05246 3.46474 9.17121 3.46474 16.6787C3.46474 19.085 4.09724 21.4225 5.27974 23.485L3.35474 30.5525L10.5735 28.655C12.5672 29.7412 14.8085 30.3187 17.091 30.3187C24.5985 30.3187 30.7172 24.2 30.7172 16.6925C30.7172 13.0487 29.301 9.62496 26.7297 7.05371C24.1585 4.46871 20.7347 3.05246 17.091 3.05246ZM17.1047 5.34871C20.1297 5.34871 22.9622 6.53121 25.1072 8.67621C27.2385 10.8212 28.421 13.6675 28.421 16.6925C28.421 22.935 23.3335 28.0087 17.091 28.0087C15.056 28.0087 13.0622 27.4725 11.3297 26.4275L10.9172 26.1937L6.62724 27.3212L7.76849 23.1412L7.49349 22.7012C6.36599 20.9275 5.76099 18.8237 5.76099 16.6787C5.77474 10.4362 10.8485 5.34871 17.1047 5.34871ZM12.2647 10.3812C12.0447 10.3812 11.6735 10.4637 11.3572 10.8075C11.0547 11.1512 10.161 11.99 10.161 13.6537C10.161 15.3312 11.3847 16.94 11.536 17.1737C11.7285 17.4075 13.956 20.845 17.3797 22.3025C18.191 22.6737 18.8235 22.88 19.3185 23.0312C20.1297 23.2925 20.8722 23.2512 21.4635 23.1687C22.1235 23.0725 23.471 22.3437 23.7597 21.5462C24.0485 20.7487 24.0485 20.075 23.966 19.9237C23.8697 19.7862 23.6497 19.7037 23.306 19.5525C22.9622 19.36 21.2847 18.535 20.9822 18.425C20.666 18.315 20.4735 18.26 20.2122 18.59C19.9922 18.9337 19.3322 19.7037 19.1397 19.9237C18.9335 20.1575 18.741 20.185 18.411 20.02C18.0535 19.8412 16.9535 19.4837 15.661 18.3287C14.6435 17.4212 13.9697 16.3075 13.7635 15.9637C13.5985 15.6337 13.7497 15.4275 13.9147 15.2762C14.066 15.125 14.286 14.8775 14.4235 14.6712C14.6022 14.4787 14.6572 14.3275 14.7672 14.1075C14.8772 13.8737 14.8222 13.6812 14.7397 13.5162C14.6572 13.365 13.9697 11.66 13.681 10.9862C13.406 10.3262 13.131 10.4087 12.911 10.395C12.7185 10.395 12.4985 10.3812 12.2647 10.3812Z" fill="white"/>
</svg>
